<?xml version="1.0" encoding="UTF-8"?><svg id="Layer_1" xmlns="http://www.w3.org/2000/svg" viewBox="0 0 300 50"><path d="M295,10c0,4.88-3.96,8.84-8.84,8.84s-8.84-3.96-8.84-8.84h-7c0,4.88-3.96,8.84-8.84,8.84s-8.84-3.96-8.84-8.84h-7c0,4.88-3.96,8.84-8.84,8.84s-8.84-3.96-8.84-8.84h-7c0,4.88-3.96,8.84-8.84,8.84s-8.84-3.96-8.84-8.84h-7c0,4.88-3.96,8.84-8.84,8.84s-8.84-3.96-8.84-8.84h-7c0,4.88-3.96,8.84-8.84,8.84s-8.84-3.96-8.84-8.84h-7c0,4.88-3.96,8.84-8.84,8.84s-8.84-3.96-8.84-8.84h-7c0,4.88-3.96,8.84-8.84,8.84s-8.84-3.96-8.84-8.84h-7c0,4.88-3.96,8.84-8.84,8.84s-8.84-3.96-8.84-8.84h-7c0,4.88-3.96,8.84-8.84,8.84s-8.84-3.96-8.84-8.84h-7c0,4.88-3.96,8.84-8.84,8.84s-8.84-3.96-8.84-8.84h-7c0,4.88-3.96,8.84-8.84,8.84s-8.84-3.96-8.84-8.84H0v40h300V10h-5Z" style="fill:#efefed; stroke-width:0px;"/></svg>