<?xml version="1.0" encoding="UTF-8"?>
<svg xmlns="http://www.w3.org/2000/svg" version="1.1" viewBox="0 0 512 509.6">
  <!-- Generator: Adobe Illustrator 29.0.0, SVG Export Plug-In . SVG Version: 2.1.0 Build 186)  -->
  <defs>
    <style>
      .st0 {
        fill-rule: evenodd;
      }
    </style>
  </defs>
  <g id="Layer_1" image-rendering="optimizeQuality" shape-rendering="geometricPrecision" text-rendering="geometricPrecision">
    <path class="st0" d="M396.4,0H115.6C51.8,0,0,51.8,0,115.6v278.4c0,63.8,51.8,115.6,115.6,115.6h280.8c63.8,0,115.6-51.8,115.6-115.6V115.6C512,51.8,460.2,0,396.4,0ZM407.7,241.8c-12,42.7-55.5,53.6-94.3,47,67.8,11.5,85,49.7,47.8,87.9-70.7,72.5-101.6-18.2-109.5-41.5-1.5-4.3-2.1-6.3-2.1-4.6,0-1.7-.7.3-2.1,4.6-7.9,23.3-38.8,114-109.5,41.5-37.2-38.2-20-76.4,47.8-87.9-38.8,6.6-82.3-4.3-94.3-47-3.4-12.3-9.3-88-9.3-98.2,0-51.2,44.9-35.1,72.6-14.3h0c38.4,28.8,79.7,87.3,94.9,118.7,15.2-31.4,56.5-89.8,94.9-118.7,27.7-20.8,72.6-36.9,72.6,14.3s-5.9,85.9-9.3,98.2Z"/>
  </g>
</svg>