<?xml version="1.0" encoding="utf-8"?>
<!-- Generator: Adobe Illustrator 28.1.0, SVG Export Plug-In . SVG Version: 6.00 Build 0)  -->
<svg version="1.1"
	 id="Layer_1" text-rendering="geometricPrecision" shape-rendering="geometricPrecision" image-rendering="optimizeQuality"
	 xmlns="http://www.w3.org/2000/svg" xmlns:xlink="http://www.w3.org/1999/xlink" x="0px" y="0px" viewBox="0 0 512 509.6"
	 style="enable-background:new 0 0 512 509.6;" xml:space="preserve">
<style type="text/css">
	.st0{fill-rule:evenodd;clip-rule:evenodd;}
</style>
<g>
	<ellipse transform="matrix(0.7071 -0.7071 0.7071 0.7071 -115.585 248.9752)" class="st0" cx="242.7" cy="264" rx="93" ry="93"/>
	<path class="st0" d="M396.4,0H115.6C51.8,0,0,51.8,0,115.6V394c0,63.8,51.8,115.6,115.6,115.6h280.8c63.8,0,115.6-51.8,115.6-115.6
		V115.6C512,51.8,460.2,0,396.4,0z M242.7,396c-72.9,0-132-59.1-132-132s59.1-132,132-132s132,59.1,132,132S315.6,396,242.7,396z
		 M384.6,162.3c-19.1,0-34.6-15.5-34.6-34.6c0-19.1,15.5-34.6,34.6-34.6c19.1,0,34.6,15.5,34.6,34.6
		C419.2,146.8,403.7,162.3,384.6,162.3z"/>
</g>
</svg>
