<?xml version="1.0" encoding="utf-8"?>
<!-- Generator: Adobe Illustrator 28.1.0, SVG Export Plug-In . SVG Version: 6.00 Build 0)  -->
<svg version="1.1"
	 id="Layer_1" text-rendering="geometricPrecision" shape-rendering="geometricPrecision" image-rendering="optimizeQuality"
	 xmlns="http://www.w3.org/2000/svg" xmlns:xlink="http://www.w3.org/1999/xlink" x="0px" y="0px" viewBox="0 0 512 509.6"
	 style="enable-background:new 0 0 512 509.6;" xml:space="preserve">
<style type="text/css">
	.st0{fill-rule:evenodd;clip-rule:evenodd;}
</style>
<path class="st0" d="M396.4,0H115.6C51.8,0,0,51.8,0,115.6V394c0,63.8,51.8,115.6,115.6,115.6h280.8c63.8,0,115.6-51.8,115.6-115.6
	V115.6C512,51.8,460.2,0,396.4,0z M166.7,412.3H96.6V197.5h70.2V412.3z M131.7,167.5c-19.4,0-35.1-15.7-35.1-35.1
	c0-19.4,15.7-35.1,35.1-35.1c19.4,0,35.1,15.7,35.1,35.1C166.7,151.8,151,167.5,131.7,167.5z M415.4,412.3H348l0-104.1
	c0-23.8-0.5-54.5-35.1-54.5c-35.1,0-40.5,25.9-40.5,52.7v105.9H205V197.5h64.7v33.2h0.9c9-16.2,31-33.2,63.9-33.2
	c68.3,0,80.9,42.5,80.9,97.8V412.3z"/>
</svg>
