<svg version="1.1" id="Layer_1" xmlns="http://www.w3.org/2000/svg" xmlns:xlink="http://www.w3.org/1999/xlink" x="0px" y="0px"
	 viewBox="0 0 438.3 268.9" style="enable-background:new 0 0 438.3 268.9;" xml:space="preserve">
<style type="text/css">
  
  @keyframes train-stop {
    0% {
      transform: translateX(400px);  
    }
  
  20% {
    transform: translateX(0);
  }
  
  30% {
    transform: translateX(0);
  }
  
  50%  {
     transform: translateX(-400px);
   }
  
   100%  {
     transform: translateX(-400px);
   }

  }


#tram {
  transform: translateX(400px);  
  animation-fill-mode: forwards;
  animation-duration: 10s;
  animation-iteration-count: infinite;
  animation-timing-function: linear;
  animation-name: train-stop;
}

	.st0{fill:none;}
	.st1{clip-path:url(#SVGID_00000013905638463418769270000008557942251887734668_);}
	.st2{fill:none;stroke:#040A0A;stroke-width:0.2964;stroke-miterlimit:10;}
	.st3{fill:#A9A9A9;}
	.st4{fill:#B5993B;}
	.st5{fill:#353849;}
	.st6{fill:#0F1119;}
	.st7{fill:#888989;}
	.st8{fill:#C1BC97;}
	.st9{fill:#FFFFFF;}
	.st10{fill:#B4E0F9;}
	.st11{fill:url(#SVGID_00000163045286007406678930000001440169932541759136_);}
	.st12{fill:#2361A4;}
	.st13{fill:#5189BC;}
	.st14{fill:url(#SVGID_00000085234914299300064300000016794063351932851627_);}
	.st15{fill:url(#SVGID_00000078034341928758391690000008790810131899326864_);}
	.st16{fill:url(#SVGID_00000016049965584683647300000012843583989301047466_);}
	.st17{fill:#78554A;}
	.st18{fill:#8EC16C;}
	.st19{fill:#36A35E;}
	.st20{fill:#3B7CC0;}
	.st21{fill:#1D2D35;}
	.st22{fill:#F4F6F0;}
	.st23{fill:#48413F;}
	.st24{fill:#E7E1E1;}
	.st25{fill:#4F5FA8;}
	.st26{fill:#0E0E0F;}
	.st27{fill:#342E2D;}
	.st28{fill:#344C83;}
	.st29{fill:#E6C789;}
	.st30{fill:#C5927B;}
	.st31{fill:#AD7B68;}
	.st32{fill:#A69FCF;}
	.st33{fill:#807EBB;}
	.st34{fill:#8A5B4B;}
	.st35{fill:#A16E5B;}
	.st36{fill:#212022;}
	.st37{fill:#D2B46F;}
	.st38{fill:#D8AA2B;}
	.st39{fill:#B78D20;}
	.st40{fill:#CEC2BA;}
	.st41{fill:#EFEFEF;}
	.st42{fill:#2F3D5B;}
	.st43{fill:#2B3756;}
	.st44{fill:#080A0D;}
	.st45{fill:#010101;}
	.st46{fill:#A75336;}
	.st47{fill:#CFCCCC;}
	.st48{fill:#1E2738;}
	.st49{fill:#D9907E;}
	.st50{fill:#B7756A;}
	.st51{fill:#161D29;}
	.st52{fill:#232F44;}
	.st53{fill:#D1D2D3;}
</style>
<pattern  x="-68.8" y="-254" width="12" height="12" patternUnits="userSpaceOnUse" id="New_Pattern" viewBox="5.9 -17.9 12 12" style="overflow:visible;">
	<g>
		<rect x="5.9" y="-17.9" class="st0" width="12" height="12"/>
		<g>
			<defs>
				<rect id="SVGID_1_" x="5.9" y="-17.9" width="12" height="12"/>
			</defs>
			<clipPath id="SVGID_00000114753996687637678680000016037761710402981051_">
				<use xlink:href="#SVGID_1_"  style="overflow:visible;"/>
			</clipPath>
			<g style="clip-path:url(#SVGID_00000114753996687637678680000016037761710402981051_);">
				<path class="st2" d="M11.8-17.6c0-3.2-2.6-5.8-5.8-5.8s-5.8,2.6-5.8,5.8s2.6,5.8,5.8,5.8C6.1-15,8.6-17.6,11.8-17.6z"/>
				<path class="st2" d="M17.6-11.9c0,0,0-0.1,0-0.1c-3-0.1-5.4-2.5-5.5-5.5c-0.1,0-0.2,0-0.2,0c0,3.2-2.6,5.8-5.8,5.8
					c0,0,0,0.1,0,0.1c3.1,0.1,5.6,2.6,5.7,5.7c0,0,0.1,0,0.1,0c0,0,0.1,0,0.1,0c0,0,0-0.1,0-0.1C12-9.3,14.5-11.9,17.6-11.9z"/>
				<path class="st2" d="M17.6-12.1c0.1,0,0.2,0,0.2,0c3.2,0,5.8-2.6,5.8-5.8c0-3.2-2.6-5.8-5.8-5.8s-5.8,2.6-5.8,5.8
					c0,0.1,0,0.2,0,0.2C15.1-17.5,17.5-15.1,17.6-12.1z"/>
				<path class="st2" d="M6.1-11.7c0,0-0.1,0-0.1,0c-3.2,0-5.8,2.6-5.8,5.8s2.6,5.8,5.8,5.8c3.2,0,5.8-2.6,5.8-5.8c0,0,0-0.1,0-0.1
					C8.6-6.1,6.1-8.6,6.1-11.7z"/>
				<path class="st2" d="M17.7-12c0,0-0.1,0-0.1,0c0,0,0,0.1,0,0.1c0,3.2-2.5,5.7-5.7,5.8c0.1,3.1,2.6,5.7,5.8,5.7
					c3.2,0,5.8-2.6,5.8-5.8S20.9-12,17.7-12z"/>
			</g>
		</g>
	</g>
</pattern>
<rect y="242.7" class="st3" width="437.8" height="26.2"/>
<rect x="233.4" y="15.1" class="st4" width="46.6" height="23.8"/>
<rect x="120.4" y="183.7" class="st5" width="210.6" height="53.8"/>
<rect x="355.3" y="131.2" class="st3" width="82.8" height="106.2"/>
<rect x="260" y="194.3" class="st6" width="28.6" height="40.2"/>
<rect x="365.8" y="140.4" class="st7" width="19.2" height="23.7"/>
<rect x="355.3" y="116.3" class="st7" width="83" height="14.4"/>
<rect x="393.1" y="140.5" class="st7" width="19.2" height="23.7"/>
<rect x="365.4" y="172.1" class="st7" width="19.2" height="23.7"/>
<rect x="392.7" y="172.3" class="st7" width="19.2" height="23.7"/>
<rect x="419" y="141.5" class="st7" width="19.2" height="23.7"/>
<rect x="418.6" y="173.3" class="st7" width="19.2" height="23.7"/>
<g>
	<rect x="1" y="129.2" class="st8" width="88.1" height="107.9"/>
	<g>
		<g>
			<rect x="62.8" y="142.6" class="st9" width="18.6" height="22.6"/>
			<rect x="63.8" y="143.7" class="st10" width="7.2" height="9.1"/>
			<rect x="73" y="143.7" class="st10" width="7.2" height="9.1"/>
			<rect x="73" y="154.7" class="st10" width="7.2" height="9.1"/>
			<rect x="63.8" y="154.7" class="st10" width="7.2" height="9.1"/>
		</g>
		<g>
			<rect x="62.8" y="164.3" class="st9" width="18.6" height="22.6"/>
			<rect x="63.8" y="165.5" class="st10" width="7.2" height="9.1"/>
			<rect x="73" y="165.5" class="st10" width="7.2" height="9.1"/>
			<rect x="73" y="176.4" class="st10" width="7.2" height="9.1"/>
			<rect x="63.8" y="176.4" class="st10" width="7.2" height="9.1"/>
		</g>
	</g>
	<g>
		<g>
			<rect x="44.5" y="142.6" class="st9" width="18.6" height="22.6"/>
			<rect x="45.4" y="143.8" class="st10" width="7.2" height="9.1"/>
			<rect x="54.7" y="143.8" class="st10" width="7.2" height="9.1"/>
			<rect x="54.7" y="154.7" class="st10" width="7.2" height="9.1"/>
			<rect x="45.4" y="154.7" class="st10" width="7.2" height="9.1"/>
		</g>
		<g>
			<rect x="44.5" y="164.3" class="st9" width="18.6" height="22.6"/>
			<rect x="45.4" y="165.5" class="st10" width="7.2" height="9.1"/>
			<rect x="54.7" y="165.5" class="st10" width="7.2" height="9.1"/>
			<rect x="54.7" y="176.4" class="st10" width="7.2" height="9.1"/>
			<rect x="45.4" y="176.4" class="st10" width="7.2" height="9.1"/>
		</g>
	</g>
	<g>
		<g>
			<rect x="28.7" y="142.6" class="st9" width="18.6" height="22.6"/>
			<rect x="29.7" y="143.8" class="st10" width="7.2" height="9.1"/>
			<rect x="38.9" y="143.8" class="st10" width="7.2" height="9.1"/>
			<rect x="38.9" y="154.7" class="st10" width="7.2" height="9.1"/>
			<rect x="29.7" y="154.7" class="st10" width="7.2" height="9.1"/>
		</g>
		<g>
			<rect x="28.7" y="164.3" class="st9" width="18.6" height="22.6"/>
			<rect x="29.7" y="165.5" class="st10" width="7.2" height="9.1"/>
			<rect x="38.9" y="165.5" class="st10" width="7.2" height="9.1"/>
			<rect x="38.9" y="176.4" class="st10" width="7.2" height="9.1"/>
			<rect x="29.7" y="176.4" class="st10" width="7.2" height="9.1"/>
		</g>
	</g>
</g>
<rect x="171.1" y="38.8" class="st7" width="124.8" height="21.4"/>
<pattern  id="SVGID_00000160168668518612628940000005231599177158441377_" xlink:href="#New_Pattern" patternTransform="matrix(1.3198 0 0 1.3198 2497.2637 2350.4863)">
</pattern>
<rect x="171.1" y="38.8" style="fill:url(#SVGID_00000160168668518612628940000005231599177158441377_);" width="124.8" height="21.4"/>
<rect x="171.1" y="60.3" class="st12" width="124.8" height="11.1"/>
<rect x="126.1" y="71.7" class="st4" width="169.8" height="41.1"/>
<rect x="126.1" y="112.1" class="st12" width="169.8" height="10.5"/>
<rect x="1" y="237.5" class="st5" width="436.7" height="2.5"/>
<rect x="102.9" y="122.7" class="st7" width="243.6" height="7.8"/>
<rect x="102.9" y="130.5" class="st13" width="243.6" height="22.7"/>
<rect x="102.9" y="153.2" class="st7" width="243.6" height="7.8"/>
<rect x="102.9" y="161" class="st13" width="243.6" height="22.7"/>
<rect x="153.1" y="194.3" class="st6" width="29.7" height="40.2"/>
<rect x="186.5" y="194.7" class="st6" width="69.8" height="40.2"/>
<pattern  id="SVGID_00000013893513510871304260000005882055415360208314_" xlink:href="#New_Pattern" patternTransform="matrix(1.3198 0 0 1.3198 2481.47 2341.4846)">
</pattern>
<rect x="126.1" y="71.7" style="fill:url(#SVGID_00000013893513510871304260000005882055415360208314_);" width="169.8" height="40.4"/>
<pattern  id="SVGID_00000141423470509478405100000012420090439552041885_" xlink:href="#New_Pattern" patternTransform="matrix(1.3198 0 0 1.3198 2479.4094 2343.4646)">
</pattern>
<rect x="102.9" y="130.5" style="fill:url(#SVGID_00000141423470509478405100000012420090439552041885_);" width="243.6" height="22.7"/>
<pattern  id="SVGID_00000005247142088407332230000009935817275847331987_" xlink:href="#New_Pattern" patternTransform="matrix(1.3198 0 0 1.3198 2479.4094 2358.1157)">
</pattern>
<rect x="102.9" y="161" style="fill:url(#SVGID_00000005247142088407332230000009935817275847331987_);" width="243.6" height="22.7"/>
<g>
	<rect x="74.6" y="201" class="st17" width="12.8" height="37.1"/>
	<path class="st18" d="M75,133.2c-50.3-6.5-49.4,84.4,7.5,73.9c26.4-4.9,35.4-22.8,32.6-46.2c-1.2-9.9-8.1-18.5-17.4-23.5
		c-6.6-3.5-23.2-3.4-24.7-6"/>
</g>
<g>
	<rect x="191.3" y="221.6" class="st17" width="5.3" height="15.4"/>
	<path class="st19" d="M195.1,179.6c-12.9-4.7-10.6,48.1,0.1,43.4c5-2.2,6.6-10.4,6.1-21.1c-0.2-4.5-3.6-7.9-3.3-10.7
		c0.3-2.9-1.1-7.1-1.4-8.3"/>
</g>
<g>
	<rect x="108.3" y="222.6" class="st17" width="5.3" height="15.4"/>
	<path class="st19" d="M112.1,180.6c-12.9-4.7-10.6,48.1,0.1,43.4c5-2.2,6.6-10.4,6.1-21.1c-0.2-4.5-3.6-7.9-3.3-10.7
		c0.3-2.9-1.1-7.1-1.4-8.3"/>
</g>
<g id="tram">
	<path class="st20" d="M152.3,194.3H96.6l-4.3,2c0,0-7,2-9.4,5.2S71.3,221,70.8,225.2c-0.4,4.3-0.9,6.5,0.9,7.9
		c1.8,1.3,33,2.9,33,2.9h47.6V194.3z"/>
	<rect x="127.6" y="203.9" class="st21" width="17.1" height="18.4"/>
	<rect x="108.5" y="203.9" class="st21" width="17.1" height="18.4"/>
	<rect x="96.9" y="203.9" class="st21" width="10.2" height="28.9"/>
	<path class="st21" d="M84.8,199.3c0,0-3.6,2.5-7.4,9.4c-3.8,7-5.6,11.9-5.6,11.9h16.6v-13.2C88.3,207.4,88.6,201.8,84.8,199.3z"/>
	<path class="st22" d="M87.2,198.4c0,0,5.8,5.2,6.1,9.9c0.2,4.7-2,11-4,12.6s-9,7.4-10.8,8.1c-1.8,0.7-8,2.9-8,2.9v-4.5
		c0,0,7.6-1.8,11.4-5.2c3.8-3.4,6.3-5.6,7.4-8.7s-2-9.9-2.9-11c-0.9-1.1-2.7-2.5-2.7-2.5L87.2,198.4z"/>
	<rect x="152.3" y="196.2" class="st21" width="7.2" height="38.4"/>
	<rect x="159.5" y="195.6" class="st20" width="75.6" height="40.4"/>
	<rect x="167.2" y="203.9" class="st21" width="17.1" height="31.1"/>
	<rect x="213.8" y="203.2" class="st21" width="17.1" height="31.8"/>
	<rect x="187" y="203.9" class="st21" width="24" height="18.4"/>
	<rect x="234.3" y="196.2" class="st21" width="7.2" height="38.4"/>
	<rect x="241.5" y="195.6" class="st20" width="75.6" height="40.4"/>
	<rect x="249.2" y="203.9" class="st21" width="17.1" height="31.1"/>
	<rect x="295.8" y="203.2" class="st21" width="17.1" height="31.8"/>
	<rect x="269" y="203.9" class="st21" width="24" height="18.4"/>
	<rect x="316.8" y="196.2" class="st21" width="7.2" height="38.4"/>
	<rect x="323.9" y="195.6" class="st20" width="75.6" height="40.4"/>
	<rect x="331.7" y="203.9" class="st21" width="17.1" height="31.1"/>
	<rect x="378.3" y="203.2" class="st21" width="17.1" height="31.8"/>
	<rect x="351.5" y="203.9" class="st21" width="24" height="18.4"/>
</g>
<g>
	<g id="_x30_1_00000101816291580072815570000016271262592367235970_">
		<g id="body_00000181791870072502288390000011184184035945706410_">
			<path class="st23" d="M320.3,250.7c-0.2-1.3-0.9-5.3-0.9-5.3s2.9-8.2,3.8-6.4c0,0-1.2,9.3-1.2,10.1c0,0.8,0.7,2.2,0.5,4.9
				c-0.1,1.3-0.2,5.8-0.2,5.8l-0.7,0.7l-0.6-0.9C321.1,259.6,320.4,251.6,320.3,250.7z"/>
			<path class="st23" d="M317.2,250.3c0-1.3-0.3-5.4-0.3-5.4s3.7-7.8,4.5-5.9c0,0-2.2,9.1-2.3,9.9c-0.1,0.8,0.4,2.3,0,4.9
				c-0.2,1.3-0.9,5.8-0.9,5.8l-0.7,0.6l-0.5-1C317.1,259.2,317.3,251.2,317.2,250.3z"/>
			<g id="leg_00000079478131635298782250000004259595911433371274_">
				<g>
					<path class="st9" d="M318.4,259.4c0.1,0,0.3,1.7,0.2,1.8c-0.1,0.1-4.3,0.2-4.6-0.1c-0.1-0.1,0-0.7,0.1-0.7
						c1.6-0.5,2.9-1.4,2.9-1.4s0.3,0.2,0.3,0.4l0,0.1c0,0,0.3,0.2,0.5,0.2C318,259.7,318.2,259.3,318.4,259.4z"/>
					<path class="st24" d="M316.3,259.4c0.2,0.1,0.3,0.4,0.3,0.5l-0.1,0C316.5,259.8,316.5,259.6,316.3,259.4
						C316.3,259.4,316.3,259.4,316.3,259.4L316.3,259.4z"/>
					<path class="st24" d="M315.9,259.6c0.2,0.1,0.3,0.4,0.3,0.4l-0.1,0C316.1,260,316.1,259.8,315.9,259.6L315.9,259.6z"/>
				</g>
			</g>
			<g>
				<path class="st9" d="M322.4,259.7c0.1,0,0.3,1.7,0.2,1.8c-0.1,0.1-4.3,0.2-4.6-0.1c-0.1-0.1,0-0.7,0.1-0.7
					c1.6-0.5,2.9-1.4,2.9-1.4s0.3,0.2,0.3,0.4l0,0.1c0,0,0.3,0.2,0.5,0.2C322,260,322.2,259.6,322.4,259.7z"/>
				<path class="st24" d="M320.4,259.7c0.2,0.1,0.3,0.4,0.3,0.5l-0.1,0C320.6,260.1,320.5,259.9,320.4,259.7
					C320.3,259.7,320.3,259.7,320.4,259.7L320.4,259.7z"/>
				<path class="st24" d="M320,259.9c0.2,0.1,0.3,0.4,0.3,0.4l-0.1,0C320.2,260.3,320.1,260,320,259.9L320,259.9z"/>
			</g>
			<path class="st25" d="M320.6,228.6c0.3-0.1,1.5,0.6,2.3,1.7c0.4,0.5,0.8,2.4,0.8,4.1l0.2,3.4l-0.2,0.8l0.3,10.1
				c-1.3,1.5-7.9,0.4-7.9,0.4s1.7-15.6,2-16.5c0.2-0.8,0.9-3.3,1.8-3.8C320.2,228.5,320.6,228.6,320.6,228.6z"/>
			<path id="hair_00000097463118453870279210000010132435681397153686_" class="st26" d="M325.6,224.6c0,2-1.6,3.8-3.7,3.8
				c-2,0-3.7-1.8-3.7-3.8c0-2,1.6-3.6,3.7-3.6C324,221,325.6,222.6,325.6,224.6z"/>
			<g id="neck_00000120534506195799481480000004004176283885967768_">
				<path class="st23" d="M320.9,228.9c0,0.2-1.8,1.2-1.8,0.8l0.3-2.3l1.3-0.7C320.7,226.6,320.9,228.3,320.9,228.9z"/>
				<path class="st27" d="M320.5,226.9l-1.1,0.3l-0.1,1.2C320.2,228.3,320.5,227.3,320.5,226.9z"/>
			</g>
			<polygon class="st28" points="320.8,242.2 320.7,242.2 321.4,237.7 321,233.2 321.2,232.8 321.3,232.8 321.1,233.2 321.4,237.7 
				321.4,237.7 			"/>
			<g>
				<g>
					<g id="male_00000099650555962613463120000014346223002846927243_">
						<path class="st23" d="M320.4,245c0,0-0.2,0.2-0.3,0.2c-0.2,0.1,0-1.1,0-1.1L320.4,245z"/>
						<path class="st23" d="M320.8,242.5c0,0-0.2,0.6-0.3,0.8c-0.1,0.2-0.4,0.6-0.4,0.9c0,0.3,0.1,1.1,0.3,1.1
							c0.1,0,0.3-0.2,0.3-0.2s0.2,0.1,0.3,0.1c0.1,0,0.2-0.2,0.2-0.2s0.1,0,0.2,0c0.1,0,0.2-0.2,0.2-0.2s0.1,0,0.1,0
							c0.1-0.1,0.1-0.2,0.1-0.3l-0.1-1.1l0.2-0.6L320.8,242.5z"/>
					</g>
				</g>
			</g>
			
				<rect x="321.2" y="240.5" transform="matrix(0.3796 -0.9251 0.9251 0.3796 -22.2717 447.8954)" class="st28" width="3.3" height="0.1"/>
		</g>
		<g id="head_00000150789459749373688190000001620990017065095307_">
			<g id="head_00000090281282878221205520000012611732382562445209_">
				<g id="face_00000051377625746279030250000006273775732875934385_">
					<path class="st29" d="M318,226.9c-0.1,0-0.2-0.3-0.3-0.6c0-0.3,0-0.7,0.1-0.7c0,0,0,0,0,0c0.1,0,0.2,0.3,0.3,0.6
						c0,0.2,0,0.3,0,0.5C318.1,226.8,318.1,226.9,318,226.9C318,226.9,318,226.9,318,226.9z M317.8,225.6
						C317.8,225.6,317.8,225.6,317.8,225.6c0,0-0.1,0-0.1,0.2c0,0.1,0,0.3,0,0.4c0,0.4,0.2,0.6,0.2,0.6c0,0,0,0,0,0c0,0,0,0,0.1-0.2
						c0-0.1,0-0.3,0-0.4C318,225.8,317.9,225.6,317.8,225.6z"/>
					<g id="eyebrows_00000085933374301171471670000015826743941114920852_">
						<g>
							<path class="st26" d="M318.1,225.5c0,0,0.6-0.1,0.7,0c0.2,0,0.2,0.1,0.3,0.2c0,0-0.8,0.1-0.9,0.1
								C318,225.7,318.1,225.5,318.1,225.5z"/>
						</g>
					</g>
					<path class="st23" d="M320.3,226c-0.3-0.9-0.7-1.8-1.3-1.8c-0.8,0-0.9,1.1-0.8,1.6c0,0,0,0.8,0,0.8c0,0.1,0,0.3,0,0.5
						c0,0,0.1,1.1,0.4,1.1c0.4,0,1.2-0.2,1.7-0.5c0.4-0.3,0.4-0.5,0.4-0.7c0,0-0.2-0.3-0.3-0.6C320.4,226.2,320.3,226.1,320.3,226z"
						/>
				</g>
				<g id="eyebrows_00000029036300228681788070000009322551038420104103_">
					<g>
						<path class="st26" d="M318.2,225.5c0,0,0.6-0.1,0.7,0c0.2,0,0.2,0.1,0.3,0.2c0,0-0.8,0.1-0.9,0.1
							C318.2,225.7,318.2,225.5,318.2,225.5z"/>
					</g>
				</g>
				<polygon class="st23" points="318.1,225.7 317.8,226.9 318.3,227 				"/>
			</g>
			<g>
				<path class="st29" d="M318.5,226.9c-0.1,0-0.2-0.3-0.3-0.6c0-0.3,0-0.7,0.1-0.7c0,0,0,0,0,0c0.1,0,0.2,0.3,0.3,0.6
					c0,0.2,0,0.3,0,0.5C318.6,226.8,318.5,226.9,318.5,226.9C318.5,226.9,318.5,226.9,318.5,226.9z M318.3,225.6
					C318.3,225.6,318.3,225.6,318.3,225.6c0,0-0.1,0-0.1,0.2c0,0.1,0,0.3,0,0.4c0,0.4,0.2,0.6,0.2,0.6c0,0,0,0,0,0c0,0,0,0,0.1-0.2
					c0-0.1,0-0.3,0-0.4C318.5,225.8,318.4,225.6,318.3,225.6z"/>
				<path class="st29" d="M318.2,226.1c0,0-0.1-0.1-0.1-0.1c0,0,0,0-0.1,0l0,0c0,0,0.1,0,0.1,0C318.2,226,318.2,226,318.2,226.1
					L318.2,226.1z"/>
				
					<rect x="318.5" y="226.1" transform="matrix(0.9994 -3.332639e-02 3.332639e-02 0.9994 -7.3573 10.7721)" class="st29" width="1.8" height="0.1"/>
			</g>
			<path class="st23" d="M320.5,225.7c0.1-0.1,0.2-0.1,0.4,0.1c0.2,0.2,0.1,1-0.4,1C320.1,226.8,320.3,225.9,320.5,225.7z"/>
		</g>
	</g>
	<g id="_x30_3_00000087375488463817040230000016823622307210940344_">
		<g id="leg_00000166655141321402210990000008457365343979134083_">
			<g>
				<path class="st30" d="M286.3,246c0,0-0.2,2.6-0.4,6c-0.1,2.1,0.2,2.7,0.2,4.3c0,0.7-0.4,4.4-0.4,4.4l-0.9,0.4
					c0,0-0.2-4.7-1.3-16C283.5,245.3,285.7,244.4,286.3,246z"/>
				<g>
					<path class="st31" d="M285.5,253.4L285.5,253.4c-0.1-0.1-0.3-0.2-0.5-0.2c-0.2,0-0.3,0-0.5,0.1l0,0c0.1-0.1,0.3-0.1,0.5-0.1
						C285.2,253.2,285.4,253.3,285.5,253.4z"/>
				</g>
				<path class="st9" d="M286,260.9c0-0.1-0.1-0.2-0.1-0.2c-0.1-0.1-0.1-0.1-0.1-0.2c-0.1-0.1-0.3-0.2-0.4-0.2v0c0,0,0,0,0,0
					c0,0,0,0,0,0v0c-0.1,0-0.3,0-0.4,0.2c-0.1,0.2-0.1,0.2-0.1,0.2c0,0-0.1,0.2-0.1,0.2c0,0.1-0.2,1,0,1.1c0.1,0,0.4,0,0.7,0v0
					c0,0,0,0,0,0c0,0,0,0,0,0v0c0.3,0,0.6,0,0.7,0C286.2,261.9,286,261,286,260.9z"/>
			</g>
			<g>
				<path class="st30" d="M280.8,252c-0.1-3.4-0.4-6-0.4-6c0.6-1.6,2.8-0.7,2.8-0.7c-1.1,11.2-1.3,16-1.3,16l-0.9-0.3
					c0,0-0.4-3.8-0.4-4.5C280.6,254.8,280.9,254.2,280.8,252z"/>
				<g>
					<path class="st31" d="M282.2,253.4L282.2,253.4c-0.1-0.1-0.3-0.2-0.5-0.2c-0.2,0-0.3,0-0.5,0.1l0,0c0.1-0.1,0.3-0.1,0.5-0.1
						C281.9,253.2,282,253.3,282.2,253.4z"/>
				</g>
				<path class="st9" d="M282.2,260.9c0-0.1-0.1-0.2-0.1-0.2c-0.1-0.1-0.1-0.1-0.1-0.2c-0.1-0.1-0.3-0.2-0.4-0.2v0c0,0,0,0,0,0
					c0,0,0,0,0,0v0c-0.1,0-0.3,0-0.4,0.2c-0.1,0.2-0.1,0.2-0.1,0.2c0,0-0.1,0.2-0.1,0.2c0,0.1-0.2,1,0,1.1c0.1,0,0.4,0,0.7,0v0
					c0,0,0,0,0,0c0,0,0,0,0,0v0c0.3,0,0.6,0,0.7,0C282.4,261.9,282.2,261,282.2,260.9z"/>
			</g>
		</g>
		<g id="body_00000154390468996927976850000011235495082853470871_">
			<path class="st32" d="M280.1,251.5c0,0,0.6-15,0.6-15c0,0,0,0,0,0h0c0,0,0-0.1,0.1-0.1c0.4-0.3,1.2-0.7,1.9-1
				c0.1,0.3,0.5,0.5,0.9,0.5l0,0c0.4,0,0.8-0.2,0.8-0.5c0.6,0.2,1.5,0.7,1.9,1c0,0,0.1,0.1,0.1,0.1h0c0,0,0,0,0,0
				c0,0.1,0.7,15.4,0.7,15.4C285.2,252.3,281.5,251.8,280.1,251.5z"/>
			<g>
				<g>
					<path class="st31" d="M287,247c0,0,0.2,0.3,0.1,0.4c0,0.1-0.1,0.3-0.1,0.5c0,0.3,0.1,0.8,0.1,0.8c0,0.1,0,0.6,0.2,0.6
						c0.2,0,0.1-0.5,0.1-0.6c0,0,0-0.4,0-0.4c0,0,0.2-0.7,0-0.9C287.4,247.2,287,247,287,247z"/>
					<path class="st30" d="M287.4,249.1c-0.1,0.1-0.2,0.2-0.2,0.3c0,0.1,0.6,0,0.6,0s0.3-0.2,0.2-0.4c0-0.1-0.4-1.5-0.9-1.3
						c-0.1,0.2,0,0.5,0,0.5l0.7,0.7C287.8,248.9,287.5,249.1,287.4,249.1z"/>
					<path class="st30" d="M287.5,248.4c0,0,0.1,0.1,0.2,0.1c0,0.1,0.1,0.6,0.1,0.6s-0.4,0.3-0.4,0.4c0,0.1,0,0.2,0,0.2
						c0.3-0.1,0.5-0.3,0.6-0.5c0.1-0.1,0.1-0.6,0.1-0.6s0.1-0.1,0.1-0.2c0-0.1-0.3-0.7-0.3-0.7l-0.1-0.9L287,247L287.5,248.4z"/>
				</g>
				<path class="st32" d="M286.1,236.4c0.4,0.3,0.7,0.8,0.8,1.3c0.4,3.8,2,8.2,1.3,10c-0.4,0.3-1.5,0-1.5,0l-0.6-4.2l-0.5-4.1
					C285.7,239.4,285.8,236.1,286.1,236.4z"/>
			</g>
			<g>
				<g>
					<path class="st31" d="M279.8,247c0,0-0.2,0.3-0.1,0.4c0,0.1,0.1,0.3,0.1,0.5c0,0.3-0.1,0.8-0.1,0.8c0,0.1,0,0.6-0.2,0.6
						c-0.2,0-0.1-0.5-0.1-0.6s0-0.4,0-0.4c0,0-0.2-0.7,0-0.9C279.4,247.2,279.8,247,279.8,247z"/>
					<path class="st30" d="M279.6,248.9c0,0,0.2-0.1,0.3,0.1c0.1,0.2-0.1,0.2-0.1,0.2s0.1,0.1,0.1,0.1c0,0.1-0.6,0.2-0.6,0.2
						s-0.4,0-0.4-0.4c0.1-0.4,0.1-0.8,0.1-0.8l0.3-0.3L279.6,248.9z"/>
					<path class="st30" d="M279.4,248.4c0,0-0.1,0.1-0.2,0.1c0,0.1-0.1,0.6-0.1,0.6s0.4,0.3,0.4,0.4c0,0.1,0,0.2,0,0.2
						c-0.3-0.1-0.5-0.3-0.6-0.5c-0.1-0.1-0.1-0.6-0.1-0.6s-0.1-0.1-0.1-0.2c0-0.1,0.3-0.7,0.3-0.7l0.1-0.9l0.8,0.1L279.4,248.4z"/>
				</g>
				<path class="st32" d="M280.7,236.4c-0.4,0.3-0.7,0.8-0.8,1.3c-0.4,3.4-1.9,8.3-1.3,10c0.4,0.3,1.5,0,1.5,0l0.7-4.2l0.3-4.1
					C281.1,239.4,281.1,236.1,280.7,236.4z"/>
			</g>
			<path class="st33" d="M286.5,245.4L286.5,245.4c-0.2-1.1-0.5-5.6-0.5-5.8l-0.1,0C285.9,239.6,286.3,244.3,286.5,245.4z"/>
			<path class="st33" d="M280.6,244.5c0.3-2.4,0.6-5.1,0.6-5.1l0,0l-0.1,0C281.2,239.5,280.9,242.2,280.6,244.5L280.6,244.5z"/>
		</g>
		<g id="hair_00000070091851676898473850000005978022396811787180_">
			<path id="hair_00000109019820298287483680000004261247521856488362_" class="st9" d="M282.4,238.5c-2.3-1.4-0.2-6.8-0.2-6.8
				s2.3-0.6,2.6,0c2.4,6.4,0.8,7.4,0.3,8C284.8,238.6,282.9,238.8,282.4,238.5z"/>
			<path class="st9" d="M285.3,239.6c0,0,0.1-0.1,0.1-0.2c0.3-0.3,0.7-0.8,0.7-1.9c0-0.6-0.1-1.4-0.2-2.2c-0.2-1-0.6-2.2-1.1-3.6
				l0,0c0.5,1.4,0.9,2.6,1.1,3.6c0.2,0.9,0.3,1.6,0.2,2.2c0,0.5-0.1,0.9-0.3,1.2c-0.1,0.3-0.3,0.5-0.4,0.6
				C285.4,239.5,285.3,239.5,285.3,239.6L285.3,239.6z"/>
			<path class="st9" d="M282.2,238.6L282.2,238.6c-0.5-0.3-0.8-0.9-0.9-1.6c-0.1-0.6-0.1-1.3,0-2.2c0.2-1.4,0.7-2.7,0.8-3
				c0,0,0,0,0,0c0.1-0.2,0.1-0.4,0.3-0.5l0,0c-0.2,0.1-0.3,0.4-0.3,0.6c0,0,0,0,0,0c-0.1,0.4-0.6,1.6-0.8,3c-0.1,0.9-0.1,1.6,0,2.2
				C281.4,237.8,281.7,238.3,282.2,238.6z"/>
			<path id="hair_00000105389203539917882110000000484354091776514469_" class="st9" d="M284.8,232.8c0,0,0.2-0.9-0.1-1.4
				c-0.4-0.7-1.4-1.1-2.2-0.3c-0.6,0.5-0.3,1.8-0.3,1.8l1.8-0.8L284.8,232.8z"/>
		</g>
	</g>
	<g id="_x30_6_00000072245662494295789700000012006173726263504261_">
		<g>
			<path class="st34" d="M293.5,243.3c0,0-0.2,0.4-0.2,0.5c0,0.1,0.1,0.4,0.1,0.7c0,0.3-0.1,1-0.1,1.1c0,0.1,0,0.8-0.3,0.7
				c-0.2,0-0.2-0.7-0.2-0.8c0-0.1,0-0.5,0-0.5c-0.1,0-0.3-0.9,0-1.2C293,243.6,293.5,243.3,293.5,243.3z"/>
			<path class="st35" d="M293.1,246c0.1,0.1,0.3,0.4,0.3,0.5c0,0.1-0.8,0-0.8,0s-0.4-0.3-0.3-0.6c0-0.2,1-2.3,1.1-2.2
				c0.2,0.7,0.1,1.2,0.1,1.2l-0.9,0.8C292.5,245.8,292.9,245.9,293.1,246z"/>
			<path class="st35" d="M292.9,245.1c0,0-0.2,0.1-0.2,0.2c-0.1,0.1-0.2,0.8-0.2,0.8s0.5,0.4,0.5,0.5s0,0.3,0,0.3
				c-0.3-0.1-0.7-0.4-0.8-0.6c-0.1-0.2-0.1-0.8-0.1-0.8s-0.1-0.2-0.1-0.3c0-0.1,0.3-0.9,0.3-0.9l0.2-1.1l1,0.1L292.9,245.1z"/>
		</g>
		<g id="leg_00000078023774636738984040000016441126073634648733_">
			<polygon class="st35" points="295.9,260.1 295.1,260.8 294.6,259.8 294.6,258.5 295.9,258.5 			"/>
			<path class="st36" d="M298.8,239.8c0,0-1.9,10-2,10.7c-0.1,0.8,0.2,4.6-0.7,8.1c0,0-1.1,0.2-1.7,0.1c0-1.5-0.2-6.7-0.2-7.6
				c0-1.3-0.1-9-0.1-9S298,237.9,298.8,239.8z"/>
			<g>
				<path class="st9" d="M296,259.9c0.1,0,0.4,1.7,0.2,1.8c-0.2,0.1-4.4,0.2-4.7-0.1c-0.1-0.1,0-0.7,0.1-0.7
					c1.6-0.5,2.8-1.3,2.8-1.3s0.4,0.2,0.4,0.4l-0.1,0.1c0,0,0.3,0.2,0.5,0.2C295.6,260.2,295.7,259.8,296,259.9z"/>
				<path class="st24" d="M293.5,260.1c0,0,0.1,0,0.1,0.1c0.2,0.1,0.3,0.4,0.3,0.5l-0.1,0c0-0.1-0.1-0.3-0.3-0.4
					C293.5,260.2,293.5,260.2,293.5,260.1L293.5,260.1z"/>
				<path class="st24" d="M293.9,259.9C293.9,259.9,293.9,259.9,293.9,259.9c0.3,0.2,0.4,0.4,0.4,0.5l-0.1,0
					C294.2,260.3,294.1,260.1,293.9,259.9C293.9,260,293.8,260,293.9,259.9C293.8,260,293.9,259.9,293.9,259.9z"/>
			</g>
		</g>
		<g id="leg_00000118368921470261991020000003248060493552963461_">
			<polygon class="st35" points="299.4,260.4 300.7,260 300.6,258.5 299.3,258.5 			"/>
			<path class="st36" d="M301.6,242c0,0-0.4,4.7-0.6,9c0.3,3.6,0,7.1,0,7.6c-0.3,0.3-1.8,0-1.8,0c0-0.9-0.2-4.4-0.6-7.4
				c-0.6-4.5-1.4-9.5-1.4-9.5S300.8,240.1,301.6,242z"/>
			<path class="st9" d="M299.2,260.3c0-0.1,0.1-0.3,0.2-0.3c0.1-0.1,0.1-0.1,0.2-0.3c0.1-0.2,0.3-0.3,0.5-0.3v0c0,0,0,0,0,0
				c0,0,0,0,0,0v0c0.2,0,0.4,0.1,0.5,0.3c0.1,0.2,0.1,0.3,0.2,0.3c0.1,0.1,0.2,0.2,0.2,0.3c0,0.1,0.3,1.4,0,1.4c-0.1,0-0.5,0-0.9,0
				v0c0,0,0,0,0,0c0,0,0,0,0,0v0c-0.4,0-0.8,0-0.9,0C298.8,261.7,299.1,260.4,299.2,260.3z"/>
		</g>
		<g id="_x30_2_00000121987887072066916440000014605755016904349371_">
			<g id="head_00000036962075946218203470000009001437804723942041_">
				<g id="glasses_00000133518348640540785780000000581442665046683055_">
					<path class="st37" d="M296.2,227.1C296.1,227.1,296.1,227.1,296.2,227.1c-0.2,0-0.3-0.1-0.4-0.2c-0.1-0.1-0.2-0.3-0.2-0.5
						c0-0.3,0.2-0.6,0.4-0.7c0,0,0,0,0.1,0c0.1,0,0.3,0.1,0.4,0.2c0.1,0.1,0.2,0.3,0.2,0.5C296.6,226.8,296.4,227,296.2,227.1z
						 M296,225.9c-0.2,0-0.4,0.3-0.4,0.6c0,0.2,0.1,0.3,0.2,0.4c0.1,0.1,0.2,0.2,0.3,0.2c0,0,0,0,0.1,0c0.2,0,0.4-0.3,0.4-0.6
						c0-0.2-0.1-0.3-0.2-0.4C296.3,225.9,296.2,225.8,296,225.9C296,225.8,296,225.9,296,225.9z"/>
				</g>
				<g id="face_00000129908668915028363350000005439872577740302464_">
					<path class="st35" d="M298.8,225.8c-0.1-0.9-0.9-1.3-1.6-1.3c-0.8,0-1.2,0.5-1.2,1.3c0,0,0,0.1,0,0.2c0,0.1,0.1,0.3,0.1,0.4
						c0,0.2,0,0.4,0,0.5c0,0.5,0.5,1.7,1.1,1.7c0.7,0,1.8-0.9,1.8-1.4C298.8,227.1,298.8,226.1,298.8,225.8z"/>
					
						<rect x="295.6" y="226.4" transform="matrix(0.9974 -7.144422e-02 7.144422e-02 0.9974 -15.4178 21.7487)" class="st37" width="1.4" height="0.1"/>
				</g>
				<g id="eyebrows_00000180331777826610711770000013005138086002042558_">
					<path class="st26" d="M296.2,225.9c0,0-0.1,0-0.2,0c-0.1,0-0.1,0.2,0,0.2c0.1,0,0.1,0,0.1,0
						C296.2,226.1,296.2,225.9,296.2,225.9z"/>
				</g>
			</g>
			<path id="beard_00000164484751872990948190000015057232618200186279_" class="st26" d="M296,227.3c0.1,0.2,0.3,0.5,0.6,0.5
				c0.4,0,0.7-1.4,0.7-1.4s0.2,0.2,0.2,0.5c0.1,0.4,0,0.9,0,1.6c-0.2,0.2-0.7,0.2-0.8,0.2C296.4,228.7,296.1,227.8,296,227.3z"/>
		</g>
		<g id="neck_00000173878976260715163560000014090858167551509137_">
			<polygon class="st35" points="299.1,229.4 298.1,230 297.3,230.1 297.5,227.3 299,227.3 			"/>
		</g>
		<path class="st38" d="M301.3,230.3c-0.2-0.2-1.4-1-2.2-1c0,0-1.7,0.1-1.7,0.1c-0.4,0.1-1.6,0.8-2.1,1.3h0c0,0-1,0.9-1.2,2.7
			c0,0,0.7,3.4,0.5,4.3c-0.4,2.5-0.8,3.4-0.5,6.1c0,0,6.2,0.6,7.6,0.1C302.9,242.1,301.7,233.1,301.3,230.3z"/>
		<g>
			<path class="st38" d="M300.3,242.1l1,0.4c0,0,2.4-2.6,2.7-4c0.4-2-0.1-5.9-2.7-8.2c-0.8,0.2-1,1.8-0.9,3.4
				c0.1,1.7,1.7,4.2,1.7,4.2L300.3,242.1z"/>
		</g>
		<path class="st39" d="M302.1,242.6L302.1,242.6c0.4-4.3-0.4-8.8-0.4-8.8l0.1,0C301.8,233.8,302.6,238.3,302.1,242.6z"/>
		<path class="st39" d="M303.1,237.8c0,0-0.5-0.1-0.9,0l0-0.1C302.7,237.5,303.2,237.7,303.1,237.8L303.1,237.8z"/>
		<path class="st38" d="M294.4,232c0,0-0.8,2.1-1.1,6c-0.1,0.7-1.1,5.5-1.1,5.5l1.4,0.3c0,0,2-4.5,2.3-5.9
			C296.3,236.6,294.4,232,294.4,232z"/>
		<path class="st39" d="M294.8,241.1L294.8,241.1c-0.1-0.1,0.7-1.8,1-2.7c0.3-0.9,0.2-3.3,0.2-3.3l0.1,0c0,0.1,0.1,2.4-0.2,3.3
			C295.6,239.3,294.8,241.1,294.8,241.1z"/>
		<path id="turban_00000062896255301990531710000000697916880427873467_" class="st9" d="M301.9,224.9c0,1.6-1.3,2.9-2.9,2.9
			c-1.6,0-2.9-1.3-2.9-2.9c0-1.6,1.3-2.9,2.9-2.9C300.6,222,301.9,223.3,301.9,224.9z"/>
		<path class="st24" d="M300.8,225.9c-0.6,0-1.3-0.2-1.8-0.6c-0.6-0.5-0.9-1.2-1-1.9c0-0.4,0-0.8,0.1-1.1l0.1,0
			c-0.1,0.4-0.2,0.8-0.1,1.1c0.1,0.7,0.4,1.4,1,1.9c0.6,0.5,1.3,0.7,2,0.6c0.2,0,0.5-0.1,0.7-0.2l0,0.1c-0.2,0.1-0.5,0.1-0.7,0.2
			C301,225.9,300.9,225.9,300.8,225.9z"/>
		<path class="st24" d="M300.3,225.8c0.5-0.6,0.8-1.3,0.7-2.1c0-0.4-0.2-0.7-0.3-1.1c0,0,0,0,0.1,0.1c0.2,0.3,0.3,0.6,0.3,1
			C301.2,224.5,300.9,225.2,300.3,225.8L300.3,225.8z"/>
	</g>
</g>
<g>
	<g>
		<g>
			<path class="st40" d="M268.6,252.6c0,0.5-3.1,0.9-13.7,0.9c-10.6,0-24.6-0.4-24.6-0.9c0-0.5,14-0.9,24.6-0.9
				C265.5,251.7,268.6,252.1,268.6,252.6z"/>
			<g id="_x30_1_00000163059249911959722990000005418845922956981937_">
				<g id="body_00000102544368040055783590000012721671582573428889_">
					<path id="hair_00000170251107551022508100000000836537893011101362_" class="st26" d="M241.3,215.9c0,1.1,0.9,2.1,2,2.1
						c1.1,0,2-1,2-2.1c0-1.1-0.9-2-2-2C242.1,213.9,241.3,214.8,241.3,215.9z"/>
					<g id="neck_00000005970041625722327680000000308651706300950973_">
						<path class="st23" d="M242.4,219.7c0,0.2,1.9,1.2,1.9,0.8l-0.3-2.4l-1.3-0.7C242.7,217.3,242.5,219.1,242.4,219.7z"/>
						<path class="st27" d="M242.8,217.7l1.2,0.3l0.1,1.2C243.2,219.1,242.8,218.1,242.8,217.7z"/>
					</g>
				</g>
				<g id="head_00000003798488074939628160000001132423536248929976_">
					<g id="head_00000137096417924345604490000013710611510214599590_">
						<g id="face_00000047747905898607812640000002681458077547543734_">
							<path class="st37" d="M245.5,217.6c-0.1,0-0.1-0.1-0.1-0.2c0-0.1,0-0.3,0-0.5c0-0.3,0.2-0.7,0.3-0.7c0,0,0,0,0,0
								c0.1,0,0.1,0.4,0.1,0.7C245.7,217.3,245.6,217.6,245.5,217.6C245.5,217.6,245.5,217.6,245.5,217.6z M245.4,216.9
								c0,0.2,0,0.3,0,0.5c0,0.1,0,0.2,0.1,0.2c0,0,0,0,0,0c0.1,0,0.2-0.2,0.2-0.6c0-0.2,0-0.3,0-0.5c0-0.1,0-0.2-0.1-0.2
								c0,0,0,0,0,0C245.6,216.3,245.5,216.6,245.4,216.9z"/>
							<g id="eyebrows_00000160176829231615124440000005040523912649713282_">
								<g>
									<path class="st26" d="M245.4,216.2c0,0-0.6-0.1-0.7,0c-0.2,0-0.2,0.1-0.3,0.2c0,0,0.8,0.1,0.9,0.1
										C245.4,216.4,245.4,216.2,245.4,216.2z"/>
								</g>
							</g>
							<path class="st23" d="M243.1,216.7c0.3-1,0.7-1.9,1.4-1.9c0.8,0,1,1.2,0.9,1.6c0,0,0,0.8,0,0.9c0,0.1,0,0.3,0,0.5
								c0,0-0.1,1.2-0.4,1.2c-0.4,0-1.3-0.2-1.8-0.6c-0.4-0.3-0.4-0.5-0.4-0.8c0,0,0.2-0.3,0.3-0.6C243,216.9,243,216.8,243.1,216.7
								z"/>
						</g>
						<g id="eyebrows_00000141415222674118634210000013198637148209555878_">
							<g>
								<path class="st26" d="M245.2,216.2c0,0-0.6-0.1-0.7,0c-0.2,0-0.2,0.1-0.3,0.2c0,0,0.8,0.1,0.9,0.1
									C245.2,216.4,245.2,216.2,245.2,216.2z"/>
							</g>
						</g>
						<polygon class="st23" points="245.3,216.4 245.6,217.6 245.2,217.8 						"/>
					</g>
					<g>
						<path class="st37" d="M245,217.6c-0.1,0-0.1-0.1-0.1-0.2c0-0.1,0-0.3,0-0.5c0-0.3,0.2-0.7,0.3-0.7c0,0,0,0,0,0
							c0.1,0,0.1,0.4,0.1,0.7C245.2,217.3,245.1,217.6,245,217.6C245,217.6,245,217.6,245,217.6z M244.9,216.9c0,0.2,0,0.3,0,0.5
							c0,0.1,0,0.2,0.1,0.2c0,0,0,0,0,0c0.1,0,0.2-0.2,0.2-0.6c0-0.2,0-0.3,0-0.5c0-0.1,0-0.2-0.1-0.2c0,0,0,0,0,0
							C245.1,216.3,245,216.6,244.9,216.9z"/>
						<path class="st37" d="M245.2,216.8c0,0,0.1-0.1,0.1-0.1c0,0,0,0,0.1,0l0,0c0,0-0.1,0-0.1,0
							C245.3,216.7,245.2,216.7,245.2,216.8L245.2,216.8z"/>
						
							<rect x="243.9" y="215.9" transform="matrix(3.345474e-02 -0.9994 0.9994 3.345474e-02 19.0794 453.3725)" class="st37" width="0.1" height="1.9"/>
					</g>
					<path class="st23" d="M242.9,216.4c-0.1-0.1-0.2-0.1-0.4,0.1c-0.2,0.2-0.1,1.1,0.4,1.1C243.3,217.5,243,216.6,242.9,216.4z"/>
				</g>
			</g>
			<g id="_x30_1_Standing_00000028310803260848554620000000801096855591606687_">
				<g>
					<g>
						<g id="hand_00000165195004509561313830000012073844451492288441_">
							<polygon class="st23" points="249.4,231.7 250.3,232.3 250,232.9 249.1,232.6 							"/>
							<path class="st23" d="M251,232.4c-0.5-0.4-1.2-0.5-1.4-0.1c-0.1,0.1-0.1,0.2-0.1,0.4c0,0.1,0.5,0.4,0.7,0.5
								c0.1,0.1,0.2,0.1,0.3,0.2c0.1,0.1-0.1,0.4-0.1,0.4c0.3,0,0.7-0.1,0.8-0.2C251.5,233.2,251.6,232.8,251,232.4z"/>
							<path class="st41" d="M244.7,228.6l4.9,2.9l-0.6,1.4c0,0-3.4-1.4-5.1-2.2C242.1,229.9,240.5,225.4,244.7,228.6z"/>
						</g>
					</g>
				</g>
				<g id="leg_00000140007748366899102250000007029272641929058443_">
					<g>
						<polygon class="st23" points="237.8,250.4 239.2,250.5 239.5,249.6 238.1,249.3 						"/>
					</g>
					<path class="st42" d="M245,233.4c0,0-2.1,8-2.7,9.2c-0.4,0.8-1.7,4.8-2.3,7.2l-2.3-0.7c-0.1-1.2,0.1-2.8,0.6-4.3
						c0.9-3.1,1.6-4.8,1.8-7.3c0.1-2.5-0.8-5.1-0.4-6.5C240.1,229.7,245,233.4,245,233.4z"/>
				</g>
				<g id="leg_00000059286141505780713780000009961260067645079957_">
					<path class="st42" d="M239.9,231c0,0,2,9,2.1,9.8c0.1,0.8-0.4,2.2,0,4.9c0.2,1.3,0.5,3.6,0.8,4.7l2.1,0.1
						c0.1-2.3,0.2-7.3,0.2-8.2c0-1.3,1-9.3,1-9.3S240.6,229.1,239.9,231z"/>
					<polygon class="st23" points="243,251.4 244.4,251.1 244.4,250.4 243,250.4 					"/>
				</g>
				<g id="_x30_4_Standing_00000048498248744125844830000004709549989887400638_">
					<path id="dress_00000036943856355566203290000011766691342723867564_" class="st9" d="M242.9,219.3c-0.8,0.1-2.2,0.6-2.5,2.6
						c-0.4,2.8-1.9,13.2-1.9,13.2l8.2-0.5c0,0-0.2-7.9-1.5-13.2C244.9,219.9,243.6,219.3,242.9,219.3z"/>
					<g id="hand_00000061455792999826927900000005275461282878037432_">
						<polygon class="st23" points="246.2,233.6 246.4,234.6 245.8,234.9 245.3,234.1 						"/>
						<path class="st9" d="M242.7,221.1c1.1,0.2,1,1.6,1.9,7l1.9,5.5l-1.5,0.6c0,0-1.6-3.4-2.3-5.3
							C242,227.1,240.6,220.8,242.7,221.1z"/>
						<path class="st23" d="M246.9,235.3c-0.1-0.7-0.6-1.2-1-1.1c-0.1,0-0.2,0.1-0.3,0.2c-0.1,0.1,0.1,0.6,0.2,0.9
							c0,0.1,0.1,0.2,0.1,0.4c0,0.3,0,0.6-0.1,0.8c0.2,0.2,0.4,0.3,0.6,0.3C246.8,236.7,247,236,246.9,235.3z"/>
					</g>
				</g>
				<path class="st9" d="M244.7,219.6l-6.1-1.4c0,0-1.1,3.6,1.7,3.7c2.1,0.1,3.9-0.2,4.5-0.9C244.8,220.8,244.7,219.6,244.7,219.6z"
					/>
			</g>
			<g>
				<g id="dog_00000181053575820625311090000010099095914242235269_">
					<path class="st43" d="M258.7,249.2c0.4-0.8,1.7-1,2.4-1c0.6,0,0.5-1,0.7-1.2c-0.1-0.2,0.1-2,0.6-2c0.5,0,0.9,1.2,0.9,1.2
						c0.3-0.1,0.8,0,0.8,0c0.3-1,0.5-1.3,0.8-1.1c0.3,0.2,0.8,1.6,0.4,2.1c0.2,0.9,0,1.8-0.1,2.7c0,0.3-0.2,0.6-0.3,0.8
						c-0.2,0.3-0.5,0.4-0.7,0.5c-0.3,0.2-3,0.1-3.9,0c0,0-0.6-0.3-1-0.1l0,0c-0.3,0.1-0.9,1.3-1.3,1.1
						C257.7,252.2,258.2,250.3,258.7,249.2z"/>
					<path class="st43" d="M260.3,248.3c-0.6-0.2-1.2-0.7-1.3-0.5c-0.1,0.2,0.1,1.1,0.1,1.1S260.6,248.4,260.3,248.3z"/>
					<path class="st43" d="M261,252.5c-0.6,0-1.4-1.4-1.4-1.4l1.2,0.2C260.8,251.4,261.5,252.5,261,252.5z"/>
					<path class="st43" d="M265.9,250.5c0,0.4-0.1,1.2-0.4,1c-0.5-0.2-0.3-0.7-0.3-0.7s-0.5,0.6-1.2,0.7c-0.3,0.1-0.7,0-0.7-0.1
						c0.1-0.3,1.5-0.9,1.6-1.1C265,250,265.9,249.6,265.9,250.5z"/>
					<path class="st9" d="M262.3,248.4c0.1-0.1,0.9,0.5,1.2-0.5c0.1-0.4,0.1-0.8,0.1-1.1c0-0.2,0.6-0.3,0.6,0c0,0.4,0.1,0.8,0.2,1
						c0.1,0.4,0.2,0.8,0.8,0.7c0,1.9-0.8,2.9-1.6,3c-0.3,0-0.4,0-0.5-0.1c-0.1-0.2,0-0.4,0-0.5c-0.1-0.2-0.5-0.6-0.7-1.3
						C262.2,249.1,262.2,248.5,262.3,248.4z"/>
					<path class="st9" d="M261.2,251.1c0.7,0.1,0.8,0.3,0.8,0.3l0.3,0.3c-0.9,0.1-2.7-0.3-2.9-0.4
						C259.7,251.1,260.4,251,261.2,251.1z"/>
					<path class="st25" d="M263.2,251.5c0.8-0.1,1-1.3,1-1.3l0.2,0c0,0-0.1,0.3-0.2,0.7c-0.1,0.3-0.3,0.5-0.5,0.6
						c-0.1,0-0.2,0-0.3,0C263.2,251.6,263.2,251.5,263.2,251.5z"/>
					<path class="st43" d="M262.7,250.5c0,0,0.9,1.5,1.1,1.6c0.2,0.2-0.2,0.7-0.8,0.3c-0.6-0.4-1-1.1-1.6-1.4
						C261.1,250.8,262.1,250.2,262.7,250.5z"/>
					<g>
						<path class="st9" d="M263.2,246.5c0.1-0.3-0.3-1-0.6-1.1c-0.3,0-0.5,1.3-0.4,1.5C262.3,246.9,262.9,246.7,263.2,246.5z"/>
						<path class="st9" d="M264.4,246.4c-0.1-0.3,0.3-0.8,0.5-0.9c0.3-0.1,0.6,1.4,0.4,1.6C265.1,247,264.7,246.6,264.4,246.4z"/>
						<path class="st44" d="M264.3,248.1c0.1,0-0.1,0.3-0.2,0.3c-0.2,0-0.3-0.2-0.2-0.3C263.8,248.1,264.2,248,264.3,248.1z"/>
						<path class="st44" d="M264.7,247.8c0,0.1,0.1,0.2,0.2,0.2c0.1,0,0.2-0.1,0.2-0.2c0-0.1-0.1-0.2-0.2-0.2
							C264.7,247.6,264.7,247.7,264.7,247.8z"/>
						<path class="st44" d="M262.9,247.8c0,0.1,0.1,0.2,0.2,0.2c0.1,0,0.2-0.1,0.2-0.2c0-0.1-0.1-0.2-0.2-0.2
							C263,247.6,262.9,247.7,262.9,247.8z"/>
					</g>
					<path class="st25" d="M261.5,251.7c-0.2-0.2-0.4-0.4-0.5-0.8c-0.3-0.6-0.5-1.5,0-2.7c0,0,0.2-0.1,0.3,0c0.1,0.2,0.4,0.6,0.8,1
						c0.5,0.5,1.2,1,1.9,1c0,0,0,0,0,0c0.4,0,0.7-0.1,0.9-0.2c0.2-0.1,0.3-0.2,0.4-0.3c0,0.1,0,0.3,0,0.3c-0.3,0.3-0.7,0.4-1.2,0.4
						c0,0,0,0,0,0c-0.7,0-1.4-0.4-2.1-1.1c-0.4-0.3-0.6-0.7-0.8-0.9c-0.3,0.8-0.3,1.6,0,2.3c0.3,0.6,0.7,0.9,0.7,0.9
						C261.9,251.7,261.8,251.7,261.5,251.7z"/>
				</g>
				<g>
					<polygon class="st45" points="261.1,248 251.5,233.8 251.5,233.7 261.2,247.9 					"/>
					<path class="st45" d="M261.2,247.9c-0.1,0-0.3,0.1-0.3,0.3c0,0.1,0,0.1,0.1,0.2l0.1-0.1c0,0,0,0,0-0.1c0-0.1,0.1-0.2,0.2-0.2
						c0.1,0,0.2,0.1,0.2,0.2c0,0,0,0,0,0l0.1,0.1c0,0,0-0.1,0-0.1C261.5,248,261.3,247.9,261.2,247.9z"/>
					<g>
						<path class="st45" d="M251.4,233.6L251.4,233.6c0.1,0,0.1-0.6,0-0.6c-0.1,0-0.2,0-0.2,0L251.4,233.6z"/>
						<path class="st46" d="M249.9,234c0,0.2,0,0.3,0.1,0.5c0.2,0.4,0.8,0.6,1.2,0.4c0.3-0.2,0.5-0.5,0.5-0.8c0-0.3-0.4-1.1-0.5-1.3
							c-0.1-0.3-0.5-0.4-0.7-0.2l-0.7,0.4c-0.3,0.1-0.4,0.5-0.2,0.7C249.5,233.9,249.7,234,249.9,234z M251,232.9
							c0.1,0.1,0,0.2-0.1,0.3c-0.2,0-0.4,0-0.5,0.1c-0.2,0.1-0.3,0.2-0.4,0.4c-0.1,0-0.3,0-0.3-0.1c-0.1-0.2,0-0.4,0.1-0.5
							c0.3-0.1,0.5-0.1,0.7-0.4C250.7,232.7,250.9,232.8,251,232.9z"/>
					</g>
				</g>
				<path class="st23" d="M249.9,232.6c0,0,0.8,0.6,0.9,0.5c0.2-0.1-0.3-0.8-0.3-0.8L249.9,232.6z"/>
			</g>
		</g>
		<path class="st9" d="M238,249.8c-0.1,0-0.8,1.5-0.7,1.6c0.1,0.1,4.1,1.3,4.4,1.1c0.2-0.1,0.2-0.6,0.1-0.7c-1.4-0.9-2.3-2-2.3-2
			s-0.4,0-0.4,0.3l0,0.1c0,0-0.3,0.2-0.5,0.1C238.3,250.2,238.2,249.8,238,249.8z"/>
		<path class="st9" d="M243,250.9c-0.1,0-0.3,1.6-0.2,1.7c0.1,0.1,4.3,0.2,4.5-0.1c0.1-0.1,0-0.7-0.1-0.7c-1.6-0.4-2.8-1.3-2.8-1.3
			s-0.4,0.1-0.4,0.4l0,0.1c0,0-0.3,0.2-0.5,0.2C243.4,251.2,243.2,250.8,243,250.9z"/>
	</g>
	<path class="st47" d="M244.6,233.5c0,0-2.8-3.9-3.1-4.3c-0.4-0.5-0.3-5.5-0.3-5.7c0,0-0.1-2.2,1.4-2.4l0,0.1
		c-1.5,0.2-1.4,2.3-1.4,2.4c0,1.8,0,5.3,0.2,5.6C241.9,229.6,244.6,233.4,244.6,233.5L244.6,233.5z"/>
	<polygon class="st47" points="245.7,231.7 244.1,228.2 244.1,228.2 244.2,224.1 244.3,224.1 244.2,228.2 245.7,231.7 	"/>
	<path class="st48" d="M241.9,243.9L241.9,243.9c-0.1-0.7-0.1-3.1-0.1-3.1l-0.9-5.3l0.1,0l0.9,5.3
		C241.8,240.8,241.9,243.2,241.9,243.9z"/>
</g>
<g>
	<g>
		<g>
			<g id="male_3_">
				<path class="st49" d="M163.6,235.5c0,0,0.1-0.2,0.1-0.3c0-0.2-1,0.5-1,0.5L163.6,235.5z"/>
				<path class="st49" d="M161.5,236.9c0,0,0.4-0.4,0.6-0.6c0.2-0.1,0.4-0.6,0.6-0.7c0.2-0.1,1-0.3,1.1-0.2c0.1,0.1,0,0.3,0,0.3
					s0.2,0.1,0.2,0.2c0,0.1-0.1,0.2-0.1,0.2s0,0.1,0.1,0.2c0,0.1-0.1,0.3-0.1,0.3s0,0,0,0.1c0,0.1-0.1,0.2-0.2,0.2l-1.1,0.4
					l-0.5,0.4L161.5,236.9z"/>
			</g>
		</g>
	</g>
	<g id="_x30_1_1_">
		<g id="body_1_">
			<path id="hair_3_" class="st9" d="M153.9,227.3c0,1,0.9,2,1.9,2c1,0,1.9-1,1.9-2c0-1-0.9-1.9-1.9-1.9
				C154.7,225.4,153.9,226.2,153.9,227.3z"/>
			<g id="neck_1_">
				<path class="st49" d="M155,230.9c0,0.2,1.8,1.2,1.8,0.8l-0.3-2.3l-1.3-0.7C155.3,228.6,155.1,230.4,155,230.9z"/>
				<path class="st50" d="M155.4,229l1.1,0.3l0.1,1.2C155.8,230.3,155.4,229.4,155.4,229z"/>
			</g>
		</g>
		<g id="head_10_">
			<g id="head_14_">
				<g id="face_1_">
					<g id="eyebrows_2_">
						<g>
							<path class="st51" d="M157.9,227.6c0,0-0.6-0.1-0.7,0c-0.2,0-0.2,0.1-0.3,0.2c0,0,0.8,0.1,0.9,0.1
								C157.9,227.8,157.9,227.6,157.9,227.6z"/>
						</g>
					</g>
					<path class="st49" d="M155.6,228.1c0.3-0.9,0.7-1.8,1.3-1.8c0.8,0,0.9,1.1,0.8,1.6c0,0,0,0.8,0,0.8c0,0.1,0,0.3,0,0.5
						c0,0-0.1,1.1-0.4,1.1c-0.4,0-1.2-0.2-1.7-0.5c-0.4-0.3-0.4-0.5-0.4-0.7c0,0,0.2-0.3,0.3-0.6
						C155.6,228.2,155.6,228.1,155.6,228.1z"/>
				</g>
				<g id="eyebrows_1_">
					<g>
						<path class="st51" d="M157.7,227.6c0,0-0.6-0.1-0.7,0c-0.2,0-0.2,0.1-0.3,0.2c0,0,0.8,0.1,0.9,0.1
							C157.7,227.7,157.7,227.6,157.7,227.6z"/>
					</g>
				</g>
				<polygon class="st49" points="157.8,227.8 158.1,228.9 157.7,229.1 				"/>
			</g>
			<path class="st49" d="M155.4,227.7c-0.1-0.1-0.2-0.1-0.4,0.1c-0.2,0.2-0.1,1,0.4,1C155.8,228.8,155.6,227.9,155.4,227.7z"/>
		</g>
	</g>
	<g id="Running_3_">
		<path class="st40" d="M165.5,263.3c0,0.5-2.3,0.9-9.9,0.9c-7.7,0-17.8-0.4-17.8-0.9c0-0.5,10.2-0.9,17.8-0.9
			C163.2,262.4,165.5,262.8,165.5,263.3z"/>
		<g>
			<g id="_x30_3_Walking_3_">
				<g id="leg_10_">
					<path class="st9" d="M154,252.5c0.2-0.2,0.4-0.7,0.4-0.8c0.5-1.8,2.7-7.2,2.7-7.2s-3.2-5.2-4.4-3.6c0,0-0.7,7.4-1.3,9.8
						c-0.7,0-1.5,0.1-2.4,0.4c-1.3,0.3-3.6,0.8-4.6,1.1l0.1,2.1C146.8,254.3,153.1,253.8,154,252.5z"/>
					<polygon class="st49" points="143.3,252.7 142.9,254.1 144.4,254 144.4,252.5 					"/>
				</g>
				<g id="leg_9_">
					<path class="st9" d="M152,243.8c0,0,5.2,7.9,5.5,8.6c0.4,0.7,0.1,1.7,1.1,4.4c0.4,1.3,1.4,3.4,2,4.3l2-0.7
						c-0.8-2.2-1.4-6.9-1.7-7.8c-0.5-1.3-2.4-9.3-2.4-9.3S152,241.8,152,243.8z"/>
					<polygon class="st49" points="161.6,262.9 162.5,261.4 162.2,260.7 160.8,261.1 					"/>
				</g>
				<g id="hand_7_">
					<g>
						<path class="st42" d="M153.8,232.3c1.1-0.4,2.3,1.3,3.3,6.5l4.4-2.1l1.1,1.2c0,0-5,4.3-6.6,3
							C154.5,239.6,151.8,233.1,153.8,232.3z"/>
					</g>
				</g>
				<path class="st42" d="M155.1,230.6c-0.8,0.1-1.6,0.9-2.2,2.5c-0.4,2.9-1.2,13-1.2,13h7.7c0,0-1-13.8-2.6-14.9
					C156.2,230.8,155.8,230.6,155.1,230.6z"/>
				<g id="hand_6_">
					<g>
						<path class="st42" d="M155.9,231.5c0.8,0.8-0.6,3.7-4.9,6.7l3.6,3.2l-0.7,1.5c0,0-5.9-3-5.3-4.9c0.4-1.2,3.4-5.2,5.3-6.8
							C155.1,230.3,155.3,230.9,155.9,231.5z"/>
					</g>
				</g>
			</g>
		</g>
	</g>
	<path class="st9" d="M160.9,261.8c-0.1,0,0,1.8,0.2,1.8c0.2,0.1,4.4-0.8,4.6-1.1c0.1-0.2-0.2-0.7-0.2-0.7c-1.7-0.1-3.1-0.7-3.1-0.7
		s-0.4,0.2-0.3,0.5l0.1,0.1c0,0-0.2,0.3-0.5,0.3C161.4,262,161.2,261.6,160.9,261.8z"/>
	<path class="st9" d="M143.5,252.6c0-0.1-1.8,0-1.8,0.2c-0.1,0.2,0.8,4.4,1.1,4.6c0.2,0.1,0.7-0.2,0.7-0.3c0.1-1.7,0.7-3.1,0.7-3.1
		s-0.2-0.4-0.5-0.3l-0.1,0.1c0,0-0.3-0.2-0.3-0.5C143.3,253.1,143.6,252.8,143.5,252.6z"/>
	<g>
		<g>
			<g id="male_2_">
				<path class="st49" d="M156.6,242.7c0,0,0.3,0,0.3,0c0.2-0.1-0.8-0.8-0.8-0.8L156.6,242.7z"/>
				<path class="st49" d="M154.6,241.2c0,0,0.6,0.3,0.7,0.4c0.2,0.1,0.7,0.2,0.9,0.4c0.2,0.2,0.7,0.9,0.6,1
					c-0.1,0.1-0.3,0.1-0.3,0.1s0,0.2-0.1,0.3c-0.1,0-0.2,0-0.2,0s-0.1,0.1-0.1,0.1c-0.1,0.1-0.3,0-0.3,0s0,0.1-0.1,0.1
					c-0.1,0-0.2,0-0.3-0.1l-0.7-0.9l-0.6-0.3L154.6,241.2z"/>
			</g>
		</g>
	</g>
	
		<rect x="158.6" y="238.1" transform="matrix(0.992 -0.1259 0.1259 0.992 -28.8313 21.868)" class="st52" width="0.1" height="1.9"/>
	<path class="st52" d="M152.6,237c0,0,0.9-0.7,1.9-1.8l-0.1-0.1C153.4,236.2,152.6,236.9,152.6,237L152.6,237z"/>
	
		<rect x="154.6" y="246.7" transform="matrix(0.8398 -0.543 0.543 0.8398 -109.8643 123.7229)" class="st53" width="0.1" height="2.5"/>
	
		<rect x="153.5" y="239.1" transform="matrix(0.6445 -0.7646 0.7646 0.6445 -129.2063 202.8882)" class="st52" width="0.1" height="2.6"/>
</g>
</svg>