<?xml version="1.0" encoding="UTF-8"?><svg id="Layer_1" xmlns="http://www.w3.org/2000/svg" viewBox="0 0 2100 50"><path d="M295.1,10c0,4.88-3.96,8.84-8.84,8.84s-8.84-3.96-8.84-8.84h-7c0,4.88-3.96,8.84-8.84,8.84s-8.84-3.96-8.84-8.84h-7c0,4.88-3.96,8.84-8.84,8.84s-8.84-3.96-8.84-8.84h-7c0,4.88-3.96,8.84-8.84,8.84s-8.84-3.96-8.84-8.84h-7c0,4.88-3.96,8.84-8.84,8.84s-8.84-3.96-8.84-8.84h-7c0,4.88-3.96,8.84-8.84,8.84s-8.84-3.96-8.84-8.84h-7c0,4.88-3.96,8.84-8.84,8.84s-8.84-3.96-8.84-8.84h-7c0,4.88-3.96,8.84-8.84,8.84s-8.84-3.96-8.84-8.84h-7c0,4.88-3.96,8.84-8.84,8.84s-8.84-3.96-8.84-8.84h-7c0,4.88-3.96,8.84-8.84,8.84s-8.84-3.96-8.84-8.84h-7c0,4.88-3.96,8.84-8.84,8.84s-8.84-3.96-8.84-8.84h-7c0,4.88-3.96,8.84-8.84,8.84s-8.84-3.96-8.84-8.84H.1v40h300V10h-5Z" style="fill:#efefed; stroke-width:0px;"/><path d="M595.1,10c0,4.88-3.96,8.84-8.84,8.84s-8.84-3.96-8.84-8.84h-7c0,4.88-3.96,8.84-8.84,8.84s-8.84-3.96-8.84-8.84h-7c0,4.88-3.96,8.84-8.84,8.84s-8.84-3.96-8.84-8.84h-7c0,4.88-3.96,8.84-8.84,8.84s-8.84-3.96-8.84-8.84h-7c0,4.88-3.96,8.84-8.84,8.84s-8.84-3.96-8.84-8.84h-7c0,4.88-3.96,8.84-8.84,8.84s-8.84-3.96-8.84-8.84h-7c0,4.88-3.96,8.84-8.84,8.84s-8.84-3.96-8.84-8.84h-7c0,4.88-3.96,8.84-8.84,8.84s-8.84-3.96-8.84-8.84h-7c0,4.88-3.96,8.84-8.84,8.84s-8.84-3.96-8.84-8.84h-7c0,4.88-3.96,8.84-8.84,8.84s-8.84-3.96-8.84-8.84h-7c0,4.88-3.96,8.84-8.84,8.84s-8.84-3.96-8.84-8.84h-7c0,4.88-3.96,8.84-8.84,8.84s-8.84-3.96-8.84-8.84h-5.8v40h300V10h-5Z" style="fill:#efefed; stroke-width:0px;"/><path d="M895.1,10c0,4.88-3.96,8.84-8.84,8.84s-8.84-3.96-8.84-8.84h-7c0,4.88-3.96,8.84-8.84,8.84s-8.84-3.96-8.84-8.84h-7c0,4.88-3.96,8.84-8.84,8.84s-8.84-3.96-8.84-8.84h-7c0,4.88-3.96,8.84-8.84,8.84s-8.84-3.96-8.84-8.84h-7c0,4.88-3.96,8.84-8.84,8.84s-8.84-3.96-8.84-8.84h-7c0,4.88-3.96,8.84-8.84,8.84s-8.84-3.96-8.84-8.84h-7c0,4.88-3.96,8.84-8.84,8.84s-8.84-3.96-8.84-8.84h-7c0,4.88-3.96,8.84-8.84,8.84s-8.84-3.96-8.84-8.84h-7c0,4.88-3.96,8.84-8.84,8.84s-8.84-3.96-8.84-8.84h-7c0,4.88-3.96,8.84-8.84,8.84s-8.84-3.96-8.84-8.84h-7c0,4.88-3.96,8.84-8.84,8.84s-8.84-3.96-8.84-8.84h-7c0,4.88-3.96,8.84-8.84,8.84s-8.84-3.96-8.84-8.84h-5.8v40h300V10h-5Z" style="fill:#efefed; stroke-width:0px;"/><path d="M1195,10c0,4.88-3.96,8.84-8.84,8.84s-8.84-3.96-8.84-8.84h-7c0,4.88-3.96,8.84-8.84,8.84s-8.84-3.96-8.84-8.84h-7c0,4.88-3.96,8.84-8.84,8.84s-8.84-3.96-8.84-8.84h-7c0,4.88-3.96,8.84-8.84,8.84s-8.84-3.96-8.84-8.84h-7c0,4.88-3.96,8.84-8.84,8.84s-8.84-3.96-8.84-8.84h-7c0,4.88-3.96,8.84-8.84,8.84s-8.84-3.96-8.84-8.84h-7c0,4.88-3.96,8.84-8.84,8.84s-8.84-3.96-8.84-8.84h-7c0,4.88-3.96,8.84-8.84,8.84s-8.84-3.96-8.84-8.84h-7c0,4.88-3.96,8.84-8.84,8.84s-8.84-3.96-8.84-8.84h-7c0,4.88-3.96,8.84-8.84,8.84s-8.84-3.96-8.84-8.84h-7c0,4.88-3.96,8.84-8.84,8.84s-8.84-3.96-8.84-8.84h-7c0,4.88-3.96,8.84-8.84,8.84s-8.84-3.96-8.84-8.84h-5.8v40h300V10h-5Z" style="fill:#efefed; stroke-width:0px;"/><path d="M1494.9,10c0,4.88-3.96,8.84-8.84,8.84s-8.84-3.96-8.84-8.84h-7c0,4.88-3.96,8.84-8.84,8.84s-8.84-3.96-8.84-8.84h-7c0,4.88-3.96,8.84-8.84,8.84s-8.84-3.96-8.84-8.84h-7c0,4.88-3.96,8.84-8.84,8.84s-8.84-3.96-8.84-8.84h-7c0,4.88-3.96,8.84-8.84,8.84s-8.84-3.96-8.84-8.84h-7c0,4.88-3.96,8.84-8.84,8.84s-8.84-3.96-8.84-8.84h-7c0,4.88-3.96,8.84-8.84,8.84s-8.84-3.96-8.84-8.84h-7c0,4.88-3.96,8.84-8.84,8.84s-8.84-3.96-8.84-8.84h-7c0,4.88-3.96,8.84-8.84,8.84s-8.84-3.96-8.84-8.84h-7c0,4.88-3.96,8.84-8.84,8.84s-8.84-3.96-8.84-8.84h-7c0,4.88-3.96,8.84-8.84,8.84s-8.84-3.96-8.84-8.84h-7c0,4.88-3.96,8.84-8.84,8.84s-8.84-3.96-8.84-8.84h-5.8v40h300V10h-5Z" style="fill:#efefed; stroke-width:0px;"/><path d="M1794.8,10c0,4.88-3.96,8.84-8.84,8.84s-8.84-3.96-8.84-8.84h-7c0,4.88-3.96,8.84-8.84,8.84s-8.84-3.96-8.84-8.84h-7c0,4.88-3.96,8.84-8.84,8.84s-8.84-3.96-8.84-8.84h-7c0,4.88-3.96,8.84-8.84,8.84s-8.84-3.96-8.84-8.84h-7c0,4.88-3.96,8.84-8.84,8.84s-8.84-3.96-8.84-8.84h-7c0,4.88-3.96,8.84-8.84,8.84s-8.84-3.96-8.84-8.84h-7c0,4.88-3.96,8.84-8.84,8.84s-8.84-3.96-8.84-8.84h-7c0,4.88-3.96,8.84-8.84,8.84s-8.84-3.96-8.84-8.84h-7c0,4.88-3.96,8.84-8.84,8.84s-8.84-3.96-8.84-8.84h-7c0,4.88-3.96,8.84-8.84,8.84s-8.84-3.96-8.84-8.84h-7c0,4.88-3.96,8.84-8.84,8.84s-8.84-3.96-8.84-8.84h-7c0,4.88-3.96,8.84-8.84,8.84s-8.84-3.96-8.84-8.84h-5.8v40h300V10h-5Z" style="fill:#efefed; stroke-width:0px;"/><path d="M2094.7,10c0,4.88-3.96,8.84-8.84,8.84s-8.84-3.96-8.84-8.84h-7c0,4.88-3.96,8.84-8.84,8.84s-8.84-3.96-8.84-8.84h-7c0,4.88-3.96,8.84-8.84,8.84s-8.84-3.96-8.84-8.84h-7c0,4.88-3.96,8.84-8.84,8.84s-8.84-3.96-8.84-8.84h-7c0,4.88-3.96,8.84-8.84,8.84s-8.84-3.96-8.84-8.84h-7c0,4.88-3.96,8.84-8.84,8.84s-8.84-3.96-8.84-8.84h-7c0,4.88-3.96,8.84-8.84,8.84s-8.84-3.96-8.84-8.84h-7c0,4.88-3.96,8.84-8.84,8.84s-8.84-3.96-8.84-8.84h-7c0,4.88-3.96,8.84-8.84,8.84s-8.84-3.96-8.84-8.84h-7c0,4.88-3.96,8.84-8.84,8.84s-8.84-3.96-8.84-8.84h-7c0,4.88-3.96,8.84-8.84,8.84s-8.84-3.96-8.84-8.84h-7c0,4.88-3.96,8.84-8.84,8.84s-8.84-3.96-8.84-8.84h-5.8v40h300V10h-5Z" style="fill:#efefed; stroke-width:0px;"/></svg>