<?xml version="1.0" encoding="utf-8"?>
<!-- Generator: Adobe Illustrator 28.1.0, SVG Export Plug-In . SVG Version: 6.00 Build 0)  -->
<svg version="1.1" id="Layer_1" xmlns="http://www.w3.org/2000/svg" xmlns:xlink="http://www.w3.org/1999/xlink" x="0px" y="0px"
	 viewBox="0 0 2100 50" style="enable-background:new 0 0 2100 50;" xml:space="preserve">
<style type="text/css">
	.st0{fill:#525252;}
</style>
<path class="st0" d="M295.1,10c0,4.9-4,8.8-8.8,8.8s-8.8-4-8.8-8.8h-7c0,4.9-4,8.8-8.8,8.8s-8.8-4-8.8-8.8h-7c0,4.9-4,8.8-8.8,8.8
	s-8.8-4-8.8-8.8h-7c0,4.9-4,8.8-8.8,8.8s-8.8-4-8.8-8.8h-7c0,4.9-4,8.8-8.8,8.8s-8.8-4-8.8-8.8h-7c0,4.9-4,8.8-8.8,8.8
	s-8.8-4-8.8-8.8h-7c0,4.9-4,8.8-8.8,8.8s-8.8-4-8.8-8.8h-7c0,4.9-4,8.8-8.8,8.8s-8.8-4-8.8-8.8h-7c0,4.9-4,8.8-8.8,8.8
	S80,14.9,80,10h-7c0,4.9-4,8.8-8.8,8.8s-8.8-4-8.8-8.8h-7c0,4.9-4,8.8-8.8,8.8s-8.8-4-8.8-8.8h-7c0,4.9-4,8.8-8.8,8.8
	s-8.8-4-8.8-8.8H0.1v40h300V10H295.1z"/>
<path class="st0" d="M595.1,10c0,4.9-4,8.8-8.8,8.8s-8.8-4-8.8-8.8h-7c0,4.9-4,8.8-8.8,8.8s-8.8-4-8.8-8.8h-7c0,4.9-4,8.8-8.8,8.8
	s-8.8-4-8.8-8.8h-7c0,4.9-4,8.8-8.8,8.8s-8.8-4-8.8-8.8h-7c0,4.9-4,8.8-8.8,8.8s-8.8-4-8.8-8.8h-7c0,4.9-4,8.8-8.8,8.8
	s-8.8-4-8.8-8.8h-7c0,4.9-4,8.8-8.8,8.8s-8.8-4-8.8-8.8h-7c0,4.9-4,8.8-8.8,8.8s-8.8-4-8.8-8.8h-7c0,4.9-4,8.8-8.8,8.8
	s-8.8-4-8.8-8.8h-7c0,4.9-4,8.8-8.8,8.8s-8.8-4-8.8-8.8h-7c0,4.9-4,8.8-8.8,8.8s-8.8-4-8.8-8.8h-7c0,4.9-4,8.8-8.8,8.8
	s-8.8-4-8.8-8.8h-5.8v40h300V10H595.1L595.1,10z"/>
<path class="st0" d="M895.1,10c0,4.9-4,8.8-8.8,8.8s-8.8-4-8.8-8.8h-7c0,4.9-4,8.8-8.8,8.8s-8.8-4-8.8-8.8h-7c0,4.9-4,8.8-8.8,8.8
	s-8.8-4-8.8-8.8h-7c0,4.9-4,8.8-8.8,8.8s-8.8-4-8.8-8.8h-7c0,4.9-4,8.8-8.8,8.8s-8.8-4-8.8-8.8h-7c0,4.9-4,8.8-8.8,8.8
	s-8.8-4-8.8-8.8h-7c0,4.9-4,8.8-8.8,8.8s-8.8-4-8.8-8.8h-7c0,4.9-4,8.8-8.8,8.8s-8.8-4-8.8-8.8h-7c0,4.9-4,8.8-8.8,8.8
	s-8.8-4-8.8-8.8h-7c0,4.9-4,8.8-8.8,8.8s-8.8-4-8.8-8.8h-7c0,4.9-4,8.8-8.8,8.8s-8.8-4-8.8-8.8h-7c0,4.9-4,8.8-8.8,8.8
	s-8.8-4-8.8-8.8h-5.8v40h300V10H895.1L895.1,10z"/>
<path class="st0" d="M1195,10c0,4.9-4,8.8-8.8,8.8s-8.8-4-8.8-8.8h-7c0,4.9-4,8.8-8.8,8.8s-8.8-4-8.8-8.8h-7c0,4.9-4,8.8-8.8,8.8
	s-8.8-4-8.8-8.8h-7c0,4.9-4,8.8-8.8,8.8s-8.8-4-8.8-8.8h-7c0,4.9-4,8.8-8.8,8.8s-8.8-4-8.8-8.8h-7c0,4.9-4,8.8-8.8,8.8
	s-8.8-4-8.8-8.8h-7c0,4.9-4,8.8-8.8,8.8s-8.8-4-8.8-8.8h-7c0,4.9-4,8.8-8.8,8.8s-8.8-4-8.8-8.8h-7c0,4.9-4,8.8-8.8,8.8
	s-8.8-4-8.8-8.8h-7c0,4.9-4,8.8-8.8,8.8s-8.8-4-8.8-8.8h-7c0,4.9-4,8.8-8.8,8.8s-8.8-4-8.8-8.8h-7c0,4.9-4,8.8-8.8,8.8
	s-8.8-4-8.8-8.8H900v40h300V10H1195L1195,10z"/>
<path class="st0" d="M1494.9,10c0,4.9-4,8.8-8.8,8.8s-8.8-4-8.8-8.8h-7c0,4.9-4,8.8-8.8,8.8s-8.8-4-8.8-8.8h-7c0,4.9-4,8.8-8.8,8.8
	s-8.8-4-8.8-8.8h-7c0,4.9-4,8.8-8.8,8.8s-8.8-4-8.8-8.8h-7c0,4.9-4,8.8-8.8,8.8s-8.8-4-8.8-8.8h-7c0,4.9-4,8.8-8.8,8.8
	s-8.8-4-8.8-8.8h-7c0,4.9-4,8.8-8.8,8.8s-8.8-4-8.8-8.8h-7c0,4.9-4,8.8-8.8,8.8s-8.8-4-8.8-8.8h-7c0,4.9-4,8.8-8.8,8.8
	s-8.8-4-8.8-8.8h-7c0,4.9-4,8.8-8.8,8.8s-8.8-4-8.8-8.8h-7c0,4.9-4,8.8-8.8,8.8s-8.8-4-8.8-8.8h-7c0,4.9-4,8.8-8.8,8.8
	s-8.8-4-8.8-8.8h-5.8v40h300V10H1494.9L1494.9,10z"/>
<path class="st0" d="M1794.8,10c0,4.9-4,8.8-8.8,8.8s-8.8-4-8.8-8.8h-7c0,4.9-4,8.8-8.8,8.8s-8.8-4-8.8-8.8h-7c0,4.9-4,8.8-8.8,8.8
	s-8.8-4-8.8-8.8h-7c0,4.9-4,8.8-8.8,8.8s-8.8-4-8.8-8.8h-7c0,4.9-4,8.8-8.8,8.8s-8.8-4-8.8-8.8h-7c0,4.9-4,8.8-8.8,8.8
	s-8.8-4-8.8-8.8h-7c0,4.9-4,8.8-8.8,8.8s-8.8-4-8.8-8.8h-7c0,4.9-4,8.8-8.8,8.8s-8.8-4-8.8-8.8h-7c0,4.9-4,8.8-8.8,8.8
	s-8.8-4-8.8-8.8h-7c0,4.9-4,8.8-8.8,8.8s-8.8-4-8.8-8.8h-7c0,4.9-4,8.8-8.8,8.8s-8.8-4-8.8-8.8h-7c0,4.9-4,8.8-8.8,8.8
	s-8.8-4-8.8-8.8h-5.8v40h300V10H1794.8L1794.8,10z"/>
<path class="st0" d="M2094.7,10c0,4.9-4,8.8-8.8,8.8s-8.8-4-8.8-8.8h-7c0,4.9-4,8.8-8.8,8.8s-8.8-4-8.8-8.8h-7c0,4.9-4,8.8-8.8,8.8
	s-8.8-4-8.8-8.8h-7c0,4.9-4,8.8-8.8,8.8s-8.8-4-8.8-8.8h-7c0,4.9-4,8.8-8.8,8.8s-8.8-4-8.8-8.8h-7c0,4.9-4,8.8-8.8,8.8
	s-8.8-4-8.8-8.8h-7c0,4.9-4,8.8-8.8,8.8s-8.8-4-8.8-8.8h-7c0,4.9-4,8.8-8.8,8.8s-8.8-4-8.8-8.8h-7c0,4.9-4,8.8-8.8,8.8
	s-8.8-4-8.8-8.8h-7c0,4.9-4,8.8-8.8,8.8s-8.8-4-8.8-8.8h-7c0,4.9-4,8.8-8.8,8.8s-8.8-4-8.8-8.8h-7c0,4.9-4,8.8-8.8,8.8
	s-8.8-4-8.8-8.8h-5.8v40h300V10H2094.7L2094.7,10z"/>
</svg>
