<?xml version="1.0" encoding="utf-8"?>
<!-- Generator: Adobe Illustrator 28.1.0, SVG Export Plug-In . SVG Version: 6.00 Build 0)  -->
<svg version="1.1"
	 id="Layer_1" text-rendering="geometricPrecision" shape-rendering="geometricPrecision" image-rendering="optimizeQuality"
	 xmlns="http://www.w3.org/2000/svg" xmlns:xlink="http://www.w3.org/1999/xlink" x="0px" y="0px" viewBox="0 0 512 512"
	 style="enable-background:new 0 0 512 512;" xml:space="preserve">
<style type="text/css">
	.st0{fill-rule:evenodd;clip-rule:evenodd;}
</style>
<g>
	<path class="st0" d="M262.2,260.7c-30.4,1.8-40.5,16.5-39.8,29.6c1,17.8,20.2,26.1,38.6,25h0c18.1-1,38.6-8.1,42.1-51.8
		c-9.4-2.1-19.7-3.1-30.8-3.1C269.1,260.4,265.7,260.5,262.2,260.7z"/>
	<path class="st0" d="M407,0H105C47.2,0,0,47.2,0,105v302c0,57.8,47.2,105,105,105h302c57.8,0,105-47.2,105-105V105
		C512,47.2,464.8,0,407,0z M167.7,357.5c19.9,25.2,50.4,38.2,90.8,38.5c36.4-0.3,60.5-8.9,80.5-29c22.9-22.9,22.5-50.9,15.1-68
		c-4.3-10-12.1-18.4-22.6-24.7c-2.6,19.1-8.4,34.2-17.5,45.9c-12.1,15.4-29.4,23.8-51.5,25c-16.7,0.9-32.8-3.1-45.3-11.3
		c-14.8-9.8-23.4-24.7-24.3-42c-1.8-34.2,25.3-58.8,67.5-61.2c15-0.9,29-0.2,41.9,2c-1.7-10.5-5.2-18.8-10.4-24.9
		c-7.1-8.3-18.2-12.5-32.8-12.6h-0.4c-11.7,0-27.7,3.3-37.8,18.7l-24.4-16.7c14.3-21.7,37.2-32.1,62.8-31.9
		c44.4,0.3,70.8,28,73.4,76.3c1.5,0.6,3,1.3,4.5,2h0c20.7,9.9,35.9,25,43.8,43.5c11.1,25.8,12.1,67.9-21.5,101.4
		c-25.7,25.6-56.8,37.2-101,37.5h-0.2c-49.7-0.3-88-17.1-113.6-49.7c-22.9-29-34.6-69.5-35-120.2v-0.2c0.4-50.7,12.2-91.1,35-120.2
		c25.7-32.7,63.9-49.4,113.6-49.7h0.2c49.8,0.3,88.5,17,114.9,49.5c13,16,22.6,35.4,28.7,57.8l-28.6,7.6
		c-5-18.2-12.7-33.9-22.8-46.3c-20.6-25.4-51.7-38.4-92.4-38.7c-40.4,0.3-71,13.3-90.8,38.5c-18.6,23.6-28.2,57.8-28.6,101.5
		C139.5,299.7,149.1,333.9,167.7,357.5z"/>
</g>
</svg>
