<?xml version="1.0" encoding="utf-8"?>
<!-- Generator: Adobe Illustrator 28.1.0, SVG Export Plug-In . SVG Version: 6.00 Build 0)  -->
<svg version="1.1"
	 id="Layer_1" text-rendering="geometricPrecision" shape-rendering="geometricPrecision" image-rendering="optimizeQuality"
	 xmlns="http://www.w3.org/2000/svg" xmlns:xlink="http://www.w3.org/1999/xlink" x="0px" y="0px" viewBox="0 0 512 509.6"
	 style="enable-background:new 0 0 512 509.6;" xml:space="preserve">
<style type="text/css">
	.st0{fill-rule:evenodd;clip-rule:evenodd;}
</style>
<g>
	<path class="st0" d="M396.4,0H115.6C51.8,0,0,51.8,0,115.6V394c0,63.8,51.8,115.6,115.6,115.6h280.8c63.8,0,115.6-51.8,115.6-115.6
		V115.6C512,51.8,460.2,0,396.4,0z M301.1,361.3l-56.9-74.4L179,361.3h-36.1l84.4-96.5l-89.1-116.5h74.5l51.5,68l59.5-68h36.1
		L281,238.5l92.8,122.7H301.1z"/>
	<polygon class="st0" points="180.4,168.8 311.1,339.7 331.1,339.7 201.9,168.8 	"/>
</g>
</svg>
